<mxfile host="65bd71144e">
    <diagram id="dQvGUUfcHB6NCRlASLt1" name="PÃ¡gina-1">
        <mxGraphModel dx="964" dy="1486" grid="1" gridSize="10" guides="1" tooltips="1" connect="1" arrows="1" fold="1" page="1" pageScale="1" pageWidth="827" pageHeight="1169" math="0" shadow="0">
            <root>
                <mxCell id="0"/>
                <mxCell id="1" parent="0"/>
                <mxCell id="2" value="del()" style="rounded=0;whiteSpace=wrap;html=1;align=left;" vertex="1" parent="1">
                    <mxGeometry x="294" y="-600" width="120" height="30" as="geometry"/>
                </mxCell>
                <mxCell id="3" value="del()" style="rounded=0;whiteSpace=wrap;html=1;align=left;" vertex="1" parent="1">
                    <mxGeometry x="104" y="-600" width="120" height="30" as="geometry"/>
                </mxCell>
                <mxCell id="4" value="LosAngeles" style="rounded=0;whiteSpace=wrap;html=1;" vertex="1" parent="1">
                    <mxGeometry x="294" y="-680" width="120" height="30" as="geometry"/>
                </mxCell>
                <mxCell id="5" value="Empresa" style="rounded=0;whiteSpace=wrap;html=1;" vertex="1" parent="1">
                    <mxGeometry x="470" y="-680" width="120" height="30" as="geometry"/>
                </mxCell>
                <mxCell id="6" value="Edificios&lt;br&gt;Empleados" style="rounded=0;whiteSpace=wrap;html=1;align=left;" vertex="1" parent="1">
                    <mxGeometry x="104" y="-650" width="120" height="50" as="geometry"/>
                </mxCell>
                <mxCell id="7" value="Edificios&lt;br&gt;&lt;div&gt;&lt;span&gt;Empleados&lt;/span&gt;&lt;/div&gt;" style="rounded=0;whiteSpace=wrap;html=1;align=left;" vertex="1" parent="1">
                    <mxGeometry x="294" y="-650" width="120" height="50" as="geometry"/>
                </mxCell>
                <mxCell id="8" value="NuevaYork" style="rounded=0;whiteSpace=wrap;html=1;" vertex="1" parent="1">
                    <mxGeometry x="104" y="-680" width="120" height="30" as="geometry"/>
                </mxCell>
                <mxCell id="9" value="Propietario" style="rounded=0;whiteSpace=wrap;html=1;align=left;" vertex="1" parent="1">
                    <mxGeometry x="470" y="-650" width="120" height="30" as="geometry"/>
                </mxCell>
                <mxCell id="12" value="Nombre" style="rounded=0;whiteSpace=wrap;html=1;align=left;" vertex="1" parent="1">
                    <mxGeometry x="390" y="-770" width="120" height="30" as="geometry"/>
                </mxCell>
                <mxCell id="14" value="Edificios" style="rounded=0;whiteSpace=wrap;html=1;" vertex="1" parent="1">
                    <mxGeometry x="390" y="-800" width="120" height="30" as="geometry"/>
                </mxCell>
                <mxCell id="16" value="del()" style="rounded=0;whiteSpace=wrap;html=1;align=left;" vertex="1" parent="1">
                    <mxGeometry x="470" y="-620" width="120" height="30" as="geometry"/>
                </mxCell>
                <mxCell id="17" value="Nombre" style="rounded=0;whiteSpace=wrap;html=1;align=left;" vertex="1" parent="1">
                    <mxGeometry x="200" y="-780" width="120" height="30" as="geometry"/>
                </mxCell>
                <mxCell id="18" value="Empleados" style="rounded=0;whiteSpace=wrap;html=1;" vertex="1" parent="1">
                    <mxGeometry x="200" y="-810" width="120" height="30" as="geometry"/>
                </mxCell>
                <mxCell id="19" value="del()" style="rounded=0;whiteSpace=wrap;html=1;align=left;" vertex="1" parent="1">
                    <mxGeometry x="200" y="-750" width="120" height="30" as="geometry"/>
                </mxCell>
                <mxCell id="20" value="del()" style="rounded=0;whiteSpace=wrap;html=1;align=left;" vertex="1" parent="1">
                    <mxGeometry x="390" y="-740" width="120" height="30" as="geometry"/>
                </mxCell>
            </root>
        </mxGraphModel>
    </diagram>
</mxfile>